<svg xmlns="http://www.w3.org/2000/svg" viewBox="0 0 841.9 595.3">
    <symbol id="Profile" viewBox="0 0 22 22">
        <path
                d="M14 13H8c-3 0-6 2-6 5l2 2h14l2-2c0-3-3-5-6-5Zm-6-2c-4 0-8 3-8 7 0 2 2 4 4 4h14c2 0 4-2 4-4 0-4-4-7-8-7H8ZM11 8c2 0 3-2 3-3 0-2-1-3-3-3S8 3 8 5c0 1 1 3 3 3Zm0 1c3 0 5-2 5-4 0-3-2-5-5-5S6 2 6 5c0 2 2 4 5 4Z"
                fill="#000"/>
    </symbol>
    <symbol id="Login" viewBox="0 0 22 22">
        <path d="m19 10-1-1-3 1-4-1-1 1-3 3 2 2h7c2 0 3 1 3 3h1l2-2v-2c0-2-1-3-3-4ZM18 4c0 3-1 5-3 5-3 0-4-2-4-5 0-2 1-4 4-4 2 0 3 2 3 4Z"
              fill="#000"/>
        <path d="M16 17H8a4 4 0 0 0-8 1c0 2 2 4 4 4s3-1 4-3h4v1l1 1h2l1-1v-1a1 1 0 1 0 0-2ZM4 20a2 2 0 1 1 2-2l-2 2Z"
              fill="#000"/>
    </symbol>
    <symbol id="Mail" viewBox="0 0 35 35">
        <circle cx="17.5" cy="17.5" r="17.5" fill="#E0C3FC"/>
        <path d="M25.38 12.2V6H8.62v6.2L6 14.5V28h22V14.51l-2.62-2.31ZM9.57 6.95h14.86v9.38l-4.92 3.46L17 17.57l-2.52 2.22-4.92-3.46V6.95Zm-2.62 8.7 6.8 4.79-6.8 6.04V15.64Zm.77 11.4L17 18.83l9.27 8.22H7.72Zm19.33-.58-6.8-6.03 6.8-4.8v10.83Z"
              fill="#000"/>
        <path d="M17 16.81h.93v-.94H17a3.48 3.48 0 0 1-3.48-3.46A3.45 3.45 0 0 1 17 8.94a3.48 3.48 0 0 1 3.47 3.47v1.74a.5.5 0 0 1-1.01 0V12.4a2.39 2.39 0 0 0-2.4-2.4 2.4 2.4 0 0 0-2.4 2.4 2.39 2.39 0 0 0 3.86 1.89 1.45 1.45 0 0 0 2.21 1.12c.43-.27.7-.74.69-1.24V12.4A4.4 4.4 0 0 0 17 8a4.43 4.43 0 0 0-4.43 4.4A4.4 4.4 0 0 0 17 16.82Zm.05-2.97a1.46 1.46 0 0 1-1.45-1.45 1.44 1.44 0 0 1 1.46-1.45 1.46 1.46 0 0 1 1.45 1.45 1.45 1.45 0 0 1-1.46 1.45Z"
              fill="#000"/>
    </symbol>
    <symbol id="BirthDate" viewBox="0 0 22 22">
        <path d="M2.93333 3.66685c0 .80666.66 1.46666 1.46667 1.46666.80667 0 1.46667-.66 1.46667-1.46666V2.2002H16.1333v1.46665c0 .80666.66 1.46666 1.4667 1.46666.8067 0 1.4667-.66 1.4667-1.46666V2.2002H22v19.7999H0V2.2002h2.93333v1.46665ZM1.46667 20.5334H20.5333V5.86684H1.46667V20.5334Z"
              fill="#000"/>
        <path d="M16.8668 3.66664V.733329c0-.403331.33-.733329.7334-.733329.4033 0 .7333.329998.7333.733329V3.66664c0 .40333-.33.73333-.7333.73333-.4034 0-.7334-.33-.7334-.73333ZM3.66663 3.66664V.733329c0-.403331.33-.733329.73334-.733329.40333 0 .73333.329998.73333.733329V3.66664c0 .40333-.33.73333-.73333.73333-.40334 0-.73334-.33-.73334-.73333ZM6.59998 13.2002H15.4c.4033 0 .7333.33.7333.7333v.33l-1.4667.7334-1.4666-.7334-1.4667.7334-1.4667-.7334-1.46663.7334-1.46666-.7334-1.43.7334h-.03667v-1.0634c0-.4033.33-.7333.73334-.7333ZM8.79997 15.803l1.46663-.7333 1.4667.7333 1.4667-.7333 1.4666.7333 1.4667-.7333v3.2633H5.86664v-2.53l1.46667-.7333 1.46666.7333Z"
              fill="#000"/>
        <path d="M2.20078 6.6001H19.8008V19.8H2.20078V6.6001Zm8.80002.73333s-.7334 1.06332-.7334 1.46665c0 .40334.33.73333.7334.73333.4033 0 .7333-.32999.7333-.73333 0-.40333-.7333-1.46665-.7333-1.46665ZM2.93412 19.0667H19.0674v-.7333h-2.2v-4.4c0-.8067-.66-1.4667-1.4666-1.4667h-3.6667v-2.42c-.22.11-.4767.22-.7333.22-.2567 0-.5134-.0733-.7334-.22v2.42H6.60078c-.80666 0-1.46666.66-1.46666 1.4667v4.4h-2.2v.7333Z"
              fill="#000"/>
    </symbol>
    <symbol id="Country" viewBox="0 0 22 22">
        <path d="M21.13 6.71c-.17.38-.37.76-.57 1.14.28.85.45 1.74.5 2.67h-2.07l-.62.96h2.69c-.08 1.75-.61 3.38-1.47 4.78h-3.1c.3-1 .5-2.1.62-3.26l-.68-.98-.2-.29a16.71 16.71 0 0 1-.78 4.53h-3.97v-4.78h4.58l-.62-.96h-3.96V5.74h1.4a4.7 4.7 0 0 1-.3-.96h-1.1V1c.51.1 1 .34 1.47.71.24-.49.56-.93.95-1.31a11 11 0 1 0 7.24 6.31ZM7.93 1.4a9.47 9.47 0 0 0-2.09 3.38H3.08A10.12 10.12 0 0 1 7.93 1.4ZM2.4 5.74h3.1a18.17 18.17 0 0 0-.71 4.78H.94a10 10 0 0 1 1.47-4.78ZM.94 11.48H4.8c.04 1.73.29 3.36.72 4.78h-3.1a10 10 0 0 1-1.48-4.78Zm2.14 5.74h2.76a9.47 9.47 0 0 0 2.09 3.38 10.1 10.1 0 0 1-4.85-3.38ZM10.52 21c-1.44-.27-2.74-1.7-3.61-3.78h3.61V21Zm0-4.74H6.55a16.74 16.74 0 0 1-.8-4.78h4.77v4.78Zm0-5.74H5.75c.05-1.73.33-3.37.8-4.78h3.97v4.78Zm0-5.74H6.91C7.78 2.7 9.08 1.27 10.52 1v3.78ZM11.48 21v-3.78h3.61c-.88 2.08-2.17 3.51-3.61 3.78Zm2.59-.4a9.47 9.47 0 0 0 2.09-3.38h2.76a10.12 10.12 0 0 1-4.85 3.38Z"
              fill="#000"/>
        <path d="M13.44 4.27c.06.5.21.98.45 1.4a39.7 39.7 0 0 0 3.33 5.8s2.3-3.3 3.33-5.8c.23-.42.39-.9.45-1.4a3.83 3.83 0 1 0-7.56 0Zm3.78-2.36a1.91 1.91 0 1 1 0 3.83 1.91 1.91 0 0 1 0-3.83Z"
              fill="#000"/>
    </symbol>
    <symbol id="RegisterDate" viewBox="0 0 22 22">
        <path d="M19.643 1.692H18.07V0H16.5v1.692h-11V0H3.929v1.692H2.357c-.625 0-1.225.268-1.667.744A2.641 2.641 0 0 0 0 4.23v15.23c0 .674.248 1.32.69 1.796A2.275 2.275 0 0 0 2.357 22h17.286c.625 0 1.224-.267 1.667-.743.442-.477.69-1.122.69-1.796V4.232c0-.674-.248-1.32-.69-1.795a2.275 2.275 0 0 0-1.667-.744ZM4.714 17.77H3.143v-1.692h1.571v1.692Zm0-3.384H3.143v-1.693h1.571v1.693Zm0-3.385H3.143V9.308h1.571V11Zm4.715 6.77H7.857v-1.693H9.43v1.692Zm0-3.385H7.857v-1.693H9.43v1.693Zm0-3.385H7.857V9.308H9.43V11Zm4.714 6.77H12.57v-1.693h1.572v1.692Zm0-3.385H12.57v-1.693h1.572v1.693Zm0-3.385H12.57V9.308h1.572V11Zm4.714 6.77h-1.571v-1.693h1.571v1.692Zm0-3.385h-1.571v-1.693h1.571v1.693Zm0-3.385h-1.571V9.308h1.571V11Zm1.572-5.077H1.57V4.231a.88.88 0 0 1 .23-.599.759.759 0 0 1 .556-.247H3.93v1.692H5.5V3.385h11v1.692h1.571V3.385h1.572c.208 0 .408.089.555.247a.88.88 0 0 1 .23.599v1.692Z"
              fill="#000"/>
    </symbol>

    <!--Buttons-->
    <symbol id="Add" viewBox="0 0 25 25">
        <path d="M6.25 11.608h-.013a.893.893 0 1 0 0 1.786h12.525a.893.893 0 1 0 0-1.786H6.249Z" fill="#000"/>
        <path d="M13.393 6.25v-.012a.893.893 0 1 0-1.786 0v12.525a.893.893 0 1 0 1.786 0V6.25Z" fill="#000"/>
        <path d="M12.5 0C5.607 0 0 5.608 0 12.5S5.608 25 12.5 25C19.393 25 25 19.392 25 12.5S19.392 0 12.5 0Zm0 1.786a10.702 10.702 0 0 1 10.715 10.715A10.701 10.701 0 0 1 12.5 23.216 10.7 10.7 0 0 1 1.785 12.501 10.701 10.701 0 0 1 12.5 1.786Z"
              fill="#000"/>
    </symbol>
    <symbol id="Remove" viewBox="0 0 25 25">
        <path d="M12.5 25C5.596 25 0 19.404 0 12.5S5.596 0 12.5 0 25 5.596 25 12.5 19.404 25 12.5 25Zm0-2.083c5.753 0 10.416-4.664 10.416-10.417S18.253 2.084 12.5 2.084 2.083 6.747 2.083 12.5 6.747 22.917 12.5 22.917Zm4.692-11.458c.573 0 1.037.462 1.037 1.041 0 .575-.463 1.042-1.037 1.042H7.808A1.037 1.037 0 0 1 6.771 12.5c0-.575.463-1.041 1.037-1.041h9.384Z"
              fill="#000"/>
    </symbol>

    <!--Subscribes-->
    <symbol id="Subscribes" viewBox="0 0 22 22">
        <path d="M20.087 7.65H1.913c-.507 0-.994.211-1.353.586C.202 8.611 0 9.12 0 9.65V20c0 .53.202 1.04.56 1.414.36.375.846.586 1.353.586h18.174c.507 0 .994-.21 1.353-.586.358-.375.56-.884.56-1.414V9.65c0-.53-.202-1.039-.56-1.414a1.873 1.873 0 0 0-1.353-.586Zm-7.355 7.81-2.325 2.43a.824.824 0 0 1-.597.266.822.822 0 0 1-.6-.258.9.9 0 0 1-.247-.627V12.4a.911.911 0 0 1 .25-.622.834.834 0 0 1 .595-.26.831.831 0 0 1 .6.252l2.323 2.44a.9.9 0 0 1 .25.624.9.9 0 0 1-.25.625ZM17.791 3.81H4.208a1.868 1.868 0 0 0-1.3.528c-.356.342-.574.81-.613 1.312h17.4a2.037 2.037 0 0 0-.609-1.308 1.869 1.869 0 0 0-1.295-.532ZM15.964 0H6.036a1.868 1.868 0 0 0-1.299.525c-.354.339-.574.804-.614 1.305h13.744a2.035 2.035 0 0 0-.61-1.302A1.868 1.868 0 0 0 15.963 0Z"
              fill="#000"/>
    </symbol>
    <symbol id="Subscribe" viewBox="0 0 22 16">
        <path d="M4.4 0C1.963 0 0 1.903 0 4.267v7.466C0 14.097 1.962 16 4.4 16h13.2c2.437 0 4.4-1.903 4.4-4.267V4.267C22 1.903 20.038 0 17.6 0H4.4Zm3.85 4.267L14.3 8l-6.05 3.733V4.267Z"
              fill="#000"/>
    </symbol>

    <!--Roles-->
    <symbol id="Roles" viewBox="0 0 28 21">
        <path d="M19.3631 6.1244a.2778.2778 0 0 0-.0926.0008C19.2568 2.7451 16.9643 0 14.1472 0c-2.8254 0-5.124 2.7618-5.124 6.1563v.0086c-.069-.0366-.1386-.0525-.2072-.0406-.3104.054-.4694.6308-.3552 1.288.1144.6573.459 1.1463.77 1.0923.0568-.0097.1086-.038.1544-.0803.7536 2.2748 2.603 3.8881 4.762 3.8881 2.1391 0 3.9754-1.584 4.7417-3.8259a.2947.2947 0 0 0 .06.0181c.3104.054.6548-.435.7699-1.0923.1142-.6574-.0452-1.234-.3556-1.288h-.0001Zm-5.2157 5.2319c-2.2983 0-4.168-2.3327-4.168-5.2002 0-.4974.057-.9784.1624-1.4346 1.0613-1.3734 3.3208-1.4709 4.62.137 1.3631 1.6872 3.1087 1.7444 3.5382 1.7312-.1773 2.6656-1.9714 4.7666-4.1527 4.7666h.0001ZM16.7928 12.3196h-.1325c-.338.2129-.7055.3827-1.0926.5079l-1.4784 6.3234v.0187l-.0024-.0093-.0022.0093v-.0187l-1.478-6.3217a4.848 4.848 0 0 1-1.0972-.5092h-.1328c-3.0793 0-5.5754 2.4962-5.5754 5.5754v2.071c0 .0532.0028.1063.0042.1594h16.5589c.0016-.0531.0042-.1062.0042-.1594v-2.071c-.0004-3.0792-2.4967-5.5754-5.5759-5.5754l.0001-.0004Zm3.8319 4.739h-3.823v-.6772h3.823v.6772ZM26.4246 8.3993a.1712.1712 0 0 0-.0487.0002c-.0072-1.7895-1.2209-3.2428-2.7123-3.2428-1.4959 0-2.7128 1.4621-2.7128 3.2591l.0002.0049c-.0366-.0197-.0736-.0278-.11-.0214-.1642.0284-.2484.3338-.1883.6816.0607.3484.243.6072.4075.5788a.1598.1598 0 0 0 .0822-.0424c.3992 1.204 1.3779 2.0583 2.5212 2.0583 1.1325 0 2.1045-.8382 2.5102-2.0254a.1464.1464 0 0 0 .0322.0095c.1647.0284.3468-.2304.407-.5788.0604-.3474-.0243-.6527-.1883-.6816h-.0001Zm-2.7612 2.7699c-1.2168 0-2.2064-1.2348-2.2064-2.753 0-.2632.0306-.518.0857-.7592.562-.7273 1.7582-.7787 2.4463.0723.7218.8931 1.6457.9235 1.873.9162-.0941 1.4112-1.0438 2.5237-2.1986 2.5237ZM27.9548 15.7267v-1.0964c0-1.6303-1.2735-2.9136-2.9039-2.9136l-.0705-.0002c-.1786.1186-.4149.1839-.6202.25l-.8239 3.3283-.742-3.3272c-.2057-.0661-.3609-.1327-.5404-.2513h-.0705c-.6164 0-1.1881.1618-1.6614.4852 1.2892.849 2.2747 2.1154 2.7562 3.5934H28c.0016-.0589-.0452-.0397-.0452-.0682Zm-.8862-1.5272H25v-.3549h2.0686v.3549ZM5.8633 13.8587a.4838.4838 0 0 0 .021-.0291h-.021v.0291ZM1.8537 9.6601a.1616.1616 0 0 0 .0822-.0423c.3988 1.204 1.3777 2.0583 2.5212 2.0583 1.1325 0 2.1043-.8382 2.5098-2.0254a.1567.1567 0 0 0 .032.0094c.1646.0285.3474-.2303.4073-.5787.0604-.3476-.0238-.653-.188-.6816a.173.173 0 0 0-.049.0002c-.0072-1.7895-1.2209-3.2428-2.712-3.2428-1.496 0-2.7129 1.4621-2.7129 3.2591v.0049c-.0363-.0197-.0736-.0278-.11-.0214-.164.0284-.2484.3337-.188.6816.0606.3481.243.6072.4074.5787Zm.4826-2.0026c.562-.7273 1.7581-.7787 2.446.0723.7216.893 1.6457.9235 1.873.9162-.0939 1.411-1.0438 2.5234-2.1982 2.5234-1.217 0-2.2063-1.2348-2.2063-2.7528a3.3208 3.3208 0 0 1 .0855-.759v-.0001Z"
              fill="#000"/>
        <path d="M5.7918 13.8452h.0923c.4659-.6502 1.0353-1.1575 1.6837-1.5927-.482-.3439-1.0721-.535-1.7095-.535h-.07c-.1789.1186-.4002.1838-.605.25l-.8094 3.3283v.0097-.0051.0051-.0097l-.7572-3.3272c-.2062-.0661-.3755-.1327-.5554-.2513h-.0708C1.3607 11.7173 0 13.0008 0 14.6309v1.0964c0 .0284.0408.0092.0414.0685h4.8218c.228-.6508.5152-1.3499.9286-1.9371l-.0003-.0135h.0003Z"
              fill="#000"/>

    </symbol>
    <symbol id="User" viewBox="0 0 22 22">
        <path
                d="M14 13H8c-3 0-6 2-6 5l2 2h14l2-2c0-3-3-5-6-5Zm-6-2c-4 0-8 3-8 7 0 2 2 4 4 4h14c2 0 4-2 4-4 0-4-4-7-8-7H8ZM11 8c2 0 3-2 3-3 0-2-1-3-3-3S8 3 8 5c0 1 1 3 3 3Zm0 1c3 0 5-2 5-4 0-3-2-5-5-5S6 2 6 5c0 2 2 4 5 4Z"
                fill="#000"/>
    </symbol>
    <symbol id="Admin" viewBox="0 0 23 23">
        <svg viewBox="0 0 22 22" fill="none" xmlns="http://www.w3.org/2000/svg">
            <path d="M15.5 3.85v2.63h-.03a4.44 4.44 0 0 0-2.28.78c-.38.24-.74.55-1.05.88-.26.26-.5.57-.7.86H7.72V2a12.62 12.62 0 0 1-5.9 2.32V9.02h5.9v6.76c.14-.04.26-.12.38-.14.4-.19.8-.38 1.21-.55.53-.26.98-.56 1.4-.87.1.33.3.87.63 1.33.05.14.07.28.14.42l-.21.15c-.24.14-.48.28-.74.45-.12.07-.22.14-.33.19-.46.26-.89.45-1.34.61l-.55.22c-.14.07-.33.12-.54.12-.15 0-.29-.05-.46-.08a13.66 13.66 0 0 1-5.12-3.13 7.15 7.15 0 0 1-2.02-3.49A5.04 5.04 0 0 1 0 9.47V3.89c0-1.14.81-1.33 1.3-1.37C3.1 2.4 4.9 1.7 6.9.33 7.1.2 7.37 0 7.76 0c.38 0 .62.19.88.38a11.5 11.5 0 0 0 4.19 1.97c.38.07.79.14 1.19.19l.29.05c.76.07 1.19.54 1.19 1.25Zm2.6 5.57s-.22-.42-.82-.76c-.38-.23-.93-.4-1.66-.35-.24 0-.46.04-.67.12-.26.1-.5.2-.74.38-.26.16-.52.38-.74.61a3 3 0 0 0-.8 1.43c-.13.5-.13 1.02.06 1.56-.26-.02-.57.12-.28 1.17.21.76.4.97.57.97.07.43.21.92.45 1.35v1c0 .05-.02.1-.07.12-.36.16-1.98 1-3.6 2.23-.54.43-.88 1.09-.88 1.78v1.04c0 .24.2.43.43.43h12.72c.24 0 .43-.19.43-.43v-1.04c0-.69-.31-1.35-.88-1.78a21.78 21.78 0 0 0-3.57-2.23.13.13 0 0 1-.08-.12v-1.14c.17-.36.29-.74.34-1.07.14.1.4.05.69-.95.24-.8.1-1.09-.12-1.14.67-3.08-.79-3.18-.79-3.18Z"
                  fill="#000"/>
        </svg>
    </symbol>
    <symbol id="Moderator" viewBox="0 0 22 22">
        <path fill-rule="evenodd" clip-rule="evenodd"
              d="M9.0298 12.3338v1.0719c0 .19.1763.3438.393.3438h3.1533c.2179 0 .3942-.1538.3942-.3438v-2.4462c0-.1901-.1775-.3439-.3942-.3439-.2178 0-.3942.1538-.3942.3439v2.1023H9.817v-.728c0-.1891-.1763-.3439-.3942-.3439-.2167 0-.393.1548-.393.3439ZM12.522 16.4247a125.211 125.211 0 0 1-.1175-.6686c-.0334-.187-.2352-.3158-.4496-.2875-.2155.0291-.3631.2052-.3295.3922.038.2191.0783.4433.1175.6686.0333.188.234.3167.4495.2875.2155-.0292.3631-.2042.3296-.3922ZM9.5962 15.7563c-.0391.2192-.0783.4434-.1186.6686-.0323.188.1151.3629.3295.3922.2155.0291.416-.0995.4496-.2875.0403-.2252.0795-.4494.1175-.6686.0334-.187-.114-.3629-.3296-.3922-.2143-.0281-.416.1005-.4484.2875Z"
              fill="#000"/>
        <path fill-rule="evenodd" clip-rule="evenodd"
              d="M15.2681 13.5954c.0807-.1045.0876-.2403.0197-.3529-.0691-.1116-.2028-.181-.3481-.181H7.0589c-.1453 0-.279.0694-.3469.181-.069.1126-.0612.2482.0185.3529l1.0903 1.4267c.1857.2434.4818.4061.8137.4484.3319.0422.6697-.0413.9267-.2283l1.4384-1.0456 1.4384 1.0456c.2582.187.5947.2705.9268.2283.3318-.0423.628-.2052.8136-.4484l1.0904-1.4267h-.0007Zm-3.6534.1539h2.5885l-.6811.8907c-.0623.0815-.1601.1357-.2709.1498-.1105.0142-.2236-.0131-.3089-.0764l-1.3276-.9641Zm-1.231 0-1.3277.9641c-.0852.0633-.1981.0905-.3089.0764-.1105-.0141-.2085-.0683-.2709-.1498l-.681-.8907h2.5885Z"
              fill="#000"/>
        <path fill-rule="evenodd" clip-rule="evenodd"
              d="M7.8472 16.4117v-3.0062c0-.1448-.1038-.2735-.2593-.3227-.1543-.0503-.3284-.0101-.4356.1005 0 0-1.0477 1.0808-1.662 1.7133-.1407.1448-.1199.3619.046.4846.166.1227.4149.1045.5556-.0402l.967-.9974v2.0681c0 .19.1763.3439.3942.3439.2178 0 .3942-.1539.3942-.3439ZM15.137 16.5045v-2.1608l1.1202 1.1542c.1061.1096.1233.2654.0427.3901l-.2248.351c-.1061.1649-.038.375.152.4676.1903.0926.4299.0332.536-.1326.0784-.1207.1556-.2414.2248-.35.2408-.376.1891-.8416-.1291-1.1693-.6143-.6334-1.8152-1.871-1.8152-1.871-.1061-.1106-.2811-.1508-.4356-.1005-.1556.0493-.2594.1779-.2594.3227v3.0987c0 .189.1775.3439.3942.3439.2179 0 .3942-.1549.3942-.3439v-.0001ZM7.0685 7.4664h1.3311c.2167 0 .3942-.1538.3942-.3438 0-.189-.1775-.344-.3942-.344H7.0685c-.2178 0-.3942.155-.3942.344 0 .19.1764.3438.3942.3438ZM10.4796 7.4664h1.0753c.2179 0 .3942-.1538.3942-.3438 0-.189-.1763-.344-.3942-.344h-1.0753c-.2178 0-.3942.155-.3942.344 0 .19.1764.3438.3942.3438ZM13.5612 7.4664h1.3691c.2179 0 .3942-.1538.3942-.3438 0-.189-.1763-.344-.3942-.344h-1.3691c-.2167 0-.3942.155-.3942.344 0 .19.1775.3438.3942.3438ZM10.9994 18.0465c-.6523 0-1.1825.4615-1.1825 1.0306 0 .5691.5302 1.0316 1.1825 1.0316.6524 0 1.1826-.4625 1.1826-1.0316s-.5302-1.0306-1.1826-1.0306Zm0 .6868c.2179 0 .3942.1548.3942.3438 0 .1901-.1763.3439-.3942.3439-.2178 0-.3942-.1538-.3942-.3439 0-.189.1764-.3438.3942-.3438Z"
              fill="#000"/>
        <path fill-rule="evenodd" clip-rule="evenodd"
              d="M5.8201 12.2635c.0496-.0915.0923-.1971.1268-.3157.1544-.5289.151-1.3685.0934-2.3487-.0807-1.3925-.2593-3.0836-.143-4.5223.0623-.757.2028-1.4408.4978-1.9615.2582-.4525.6373-.7712 1.209-.8627a.426.426 0 0 0 .1833-.0754S8.8304 1.41 10.1421.9727c.8241-.2735 1.7599-.4263 2.5943-.1166 1.98.733 2.6727 2.6926 2.78 4.2438.0139.19.2004.3338.4171.3227.2167-.0122.3826-.175.3699-.364-.1233-1.7806-.9865-3.9945-3.2594-4.8359-1.0234-.379-2.1725-.2282-3.1832.1086-1.2136.4041-2.2175 1.0658-2.501 1.2629-.7744.1528-1.3116.5861-1.67 1.2156-.3353.5891-.5081 1.3614-.5786 2.219-.1186 1.4648.06 3.187.1419 4.6057.0519.8938.0713 1.661-.0703 2.1436-.0208.0713-.045.1346-.0748.19-.0934.1708-.0093.376.1867.4585.1959.0815.431.0081.5256-.1629l-.0002-.0002ZM8.901 22.0001h11.9172c.3655 0 .7112-.1478.9347-.4011.2236-.2523.3008-.5812.2097-.8897-.3031-1.0155-.8218-2.7609-1.2804-4.3012-.5854-1.9706-2.6242-3.346-4.9582-3.346H6.2755c-2.3339 0-4.3727 1.3755-4.9582 3.346-.4586 1.5403-.9772 3.2857-1.2792 4.3012-.0922.3087-.015.6374.2086.8897.2236.2533.5694.4011.9346.4011H3.242c.2167 0 .393-.1549.393-.3439 0-.19-.1763-.3438-.393-.3438H1.1813c-.121 0-.2363-.0494-.3112-.1337-.0748-.0845-.1003-.1941-.069-.2966l1.2791-4.3012c.4957-1.667 2.221-2.8312 4.1953-2.8312h9.4485c1.9742 0 3.6995 1.1643 4.1964 2.8312.4574 1.5403.9772 3.2858 1.2792 4.3012.0299.1025.0046.2121-.0703.2966-.0748.0845-.189.1337-.3112.1337H8.9009c-.2167 0-.3942.1538-.3942.3438 0 .189.1775.3439.3942.3439Z"
              fill="#000"/>
        <path fill-rule="evenodd" clip-rule="evenodd"
              d="M10.9997 2.5278c-2.3672 0-4.3254 1.9596-4.3254 4.4077 0 1.4397.6834 2.8482 1.7277 3.7462.7272.6253 1.6284 1.0043 2.5978 1.0043.9705 0 1.8706-.379 2.5978-1.0043 1.0454-.8978 1.7277-2.3065 1.7277-3.7462 0-.6757-.407-1.1502-.9428-1.5565-.4345-.3287-.9601-.6073-1.3104-.9631-.3354-.3429-.4946-.7642-.7031-1.097-.2916-.4655-.6581-.7912-1.3692-.7912l-.0001.0001Zm0 .6868c.3643 0 .528.196.6777.4343.2317.371.4229.8335.7964 1.2146.3734.38.9279.6837 1.3912 1.0356.3631.2745.6718.5792.6718 1.0367 0 1.2507-.5854 2.4773-1.4924 3.2566-.574.4937-1.2781.8074-2.0447.8074-.7664 0-1.4706-.3137-2.0446-.8074-.907-.7791-1.4925-2.0059-1.4925-3.2566 0-2.039 1.5652-3.721 3.5371-3.721v-.0002Z"
              fill="#000"/>
        <path fill-rule="evenodd" clip-rule="evenodd"
              d="M9.4233 5.8428c-.7606 0-1.3784.539-1.3784 1.2024 0 .6645.6178 1.2035 1.3784 1.2035.7618 0 1.3796-.539 1.3796-1.2035 0-.6635-.6178-1.2024-1.3796-1.2024Zm0 .6877c.3272 0 .5912.2303.5912.5147 0 .2855-.264.5158-.5912.5158-.326 0-.59-.2303-.59-.5158 0-.2844.264-.5147.59-.5147ZM12.5768 5.8428c-.7617 0-1.3795.539-1.3795 1.2024 0 .6645.6178 1.2035 1.3795 1.2035.7606 0 1.3784-.539 1.3784-1.2035 0-.6635-.6178-1.2024-1.3784-1.2024Zm0 .6877c.3261 0 .5912.2303.5912.5147 0 .2855-.2651.5158-.5912.5158-.3261 0-.5912-.2303-.5912-.5158 0-.2844.2651-.5147.5912-.5147ZM18.3517 17.3226c.045-.2946-.0576-.5912-.2822-.8154-.2248-.2232-.5486-.3519-.8897-.3519H4.82c-.3412 0-.6651.1287-.8897.3519-.2236.2242-.3273.5208-.2823.8154l.5787 3.7814c.0783.5127.5786.8958 1.172.8958h11.2036c.5923 0 1.0926-.3831 1.171-.8958l.5786-3.7814h-.0002Zm-.7814-.0906-.5774 3.7814c-.0265.1709-.1937.2986-.3907.2986H5.3986c-.1981 0-.3654-.1277-.3907-.2986l-.5786-3.7814c-.015-.0985.0197-.1971.0945-.2715.0749-.0754.1833-.1176.2962-.1176h12.3598c.114 0 .2213.0422.2962.1176.0748.0744.1094.1729.0945.2715h-.0002Z"
              fill="#000"/>
        <path fill-rule="evenodd" clip-rule="evenodd"
              d="M14.9883 9.2037c-.1291.3449-.499.5921-.9346.5921h-2.266c-.2178 0-.3941.1539-.3941.3439 0 .189.1763.3439.3941.3439h2.266c.4023 0 .7722-.1167 1.0695-.3138-.0737.7351-.128 1.3925-.128 1.8601 0 .5843.1683 1.0698.3159 1.476.0668.1809.2881.2806.4957.2232.2074-.0572.3216-.2503.2558-.4314-.1268-.3489-.279-.7652-.279-1.2678 0-.6756.1164-1.7554.2408-2.8875.1706-.0825.3296-.2021.4714-.356.3631-.3932.612-1.0245.612-1.7414 0-.7158-.2489-1.3472-.612-1.7414-.295-.3188-.6698-.4927-1.0626-.4927-.5474 0-1.0671.348-1.3761.9431-.0899.1729-.0023.377.1959.4555.1981.0784.4322.002.5221-.1709.159-.3077.3756-.54.6581-.54.1717 0 .3205.0975.4484.2374.2732.2946.438.773.438 1.309 0 .537-.1648 1.0154-.438 1.31-.1279.1397-.2767.2373-.4484.2373-.1578 0-.2962-.0834-.4183-.2041-.143-.1418-.3919-.1559-.5555-.0312-.1636.1258-.1798.3429-.0357.4856.1683.167.3608.2896.5648.361l-.0002.0001Z"
              fill="#000"/>

    </symbol>
    <symbol id="Support" viewBox="0 0 22 22">
        <path d="M15.6.49v7c1.59.38 2.75 1.61 2.75 3.08 0 1.77-1.71 3.21-3.82 3.21-.74 0-1.43-.18-2.01-.49a17.37 17.37 0 0 1-7.53 2.75c-.26 0-.5-.16-.54-.39-.05-.25.15-.49.45-.53a16.25 16.25 0 0 0 6.76-2.44 4.02 4.02 0 0 0 .86.61c.91-.61 1.73-1.31 2.42-2.08.18-.2.13-.5-.1-.65a.62.62 0 0 0-.77.1 12 12 0 0 1-2.4 2.03c-.6-.57-.96-1.3-.96-2.12 0-1.47 1.16-2.7 2.75-3.09V.06C13.08.02 12.68 0 12.28 0 7.87 0 3.8 2.79 2.96 5.85c-.2.69-.4 2.47-.4 2.47l-2.5 4.15a.54.54 0 0 0-.06.26c0 .36.35.66.78.66h1.78v2.43c0 1.9.98 3.2 3.83 3.2h.67V22h11.22v-6.94A8.57 8.57 0 0 0 22 8.18c0-3.54-2.67-6.55-6.4-7.7ZM3.84 9.15c0-.44.42-.8.95-.8.52 0 .94.36.94.8 0 .44-.42.8-.94.8-.53 0-.95-.36-.95-.8Z"
              fill="#000"/>

    </symbol>
    <symbol id="Banned" viewBox="0 0 22 22">
        <path d="M16.977 12.087c-.778 0-1.514.175-2.172.488a9.302 9.302 0 0 0-2.543-1.327c1.832-1.041 3.068-2.992 3.068-5.223C15.33 2.703 12.591 0 9.224 0S3.118 2.703 3.118 6.025c0 2.248 1.255 4.211 3.11 5.246C2.606 12.524 0 15.94 0 19.948h1.308c0-4.355 3.576-7.899 7.97-7.899 1.61 0 3.109.477 4.362 1.294a4.916 4.916 0 0 0-1.686 3.7c0 2.733 2.253 4.957 5.023 4.957C19.747 22 22 19.776 22 17.043c0-2.732-2.254-4.955-5.023-4.955ZM4.427 6.025c0-2.61 2.151-4.734 4.797-4.734 2.645 0 4.797 2.124 4.797 4.734s-2.152 4.734-4.797 4.734c-2.645 0-4.798-2.124-4.798-4.734Zm8.835 11.018c0-2.02 1.666-3.665 3.714-3.665.789 0 1.519.246 2.121.66l-5.166 5.098a3.608 3.608 0 0 1-.669-2.093Zm3.715 3.666a3.727 3.727 0 0 1-2.121-.66l5.166-5.098c.42.594.67 1.314.67 2.093 0 2.02-1.667 3.665-3.715 3.665Z"
              fill="#000"/>
    </symbol>
</svg>