<?xml version="1.0" encoding="UTF-8"?>
<svg width="700pt" height="700pt" version="1.1" viewBox="0 0 700 700" xmlns="http://www.w3.org/2000/svg">
 <path d="m153.84 102.23c-26.82 21.855-43.027 54.121-44.547 88.68-1.6094 34.418 11.344 67.926 35.684 92.312l180.28 180.28c6.5664 6.5547 15.469 10.234 24.746 10.234s18.18-3.6797 24.746-10.234l180.28-180.28c24.332-24.391 37.285-57.891 35.684-92.305-1.5156-34.562-17.719-66.828-44.535-88.688-24.383-19.027-54.926-28.398-85.785-26.324-30.859 2.0703-59.871 15.445-81.492 37.562l-28.898 28.898-28.898-28.898c-21.617-22.121-50.629-35.496-81.488-37.566-30.859-2.0742-61.398 7.3008-85.777 26.328zm142.52 35.984 41.273 41.273-0.003906-0.003906c3.2812 3.2852 7.7344 5.1289 12.375 5.1289s9.0898-1.8438 12.371-5.1289l41.273-41.273v0.003906c15.434-16.016 36.227-25.781 58.406-27.441 22.18-1.6602 44.191 4.9062 61.836 18.441 19.066 15.633 30.633 38.594 31.852 63.215 1.2148 24.621-8.0312 48.609-25.457 66.047l-180.28 180.28-180.28-180.28c-17.43-17.438-26.676-41.426-25.457-66.051 1.2188-24.621 12.793-47.582 31.859-63.211 15.137-12.332 34.109-18.984 53.637-18.805 25 0.10156 48.945 10.098 66.598 27.805z"/>
</svg>
