<svg id="SvgjsSvg1001" width="288" height="288" xmlns="http://www.w3.org/2000/svg" version="1.1" xmlns:xlink="http://www.w3.org/1999/xlink" xmlns:svgjs="http://svgjs.com/svgjs"><defs id="SvgjsDefs1002"></defs><g id="SvgjsG1008"><svg xmlns="http://www.w3.org/2000/svg" viewBox="0 0 32 32" width="288" height="288"><path d="M16 16A7 7 0 109 9 7 7 0 0016 16zM16 4a5 5 0 11-5 5A5 5 0 0116 4zM17 18H15A11 11 0 004 29a1 1 0 001 1H27a1 1 0 001-1A11 11 0 0017 18zM6.06 28A9 9 0 0115 20h2a9 9 0 018.94 8z" fill="#a9a9a9" class="color000 svgShape"></path></svg></g></svg>